<svg xmlns="http://www.w3.org/2000/svg" xmlns:svg="http://www.w3.org/2000/svg" xmlns:xlink="http://www.w3.org/1999/xlink" id="svg4770" width="19" height="19" version="1.1" viewBox="0 0 19 19"><defs id="defs4772"><linearGradient id="linearGradient4644" x1="2" x2="17" y1="1062.862" y2="1062.862" gradientTransform="translate(-1072.3622,-1053.3622)" gradientUnits="userSpaceOnUse" xlink:href="#linearGradient4197"/><linearGradient id="linearGradient4197"><stop id="stop4283" offset="0" style="stop-color:#969696;stop-opacity:1"/><stop style="stop-color:#bdbdbd;stop-opacity:1" id="stop4285" offset=".5"/><stop id="stop4287" offset="1" style="stop-color:#cacaca;stop-opacity:1"/></linearGradient><linearGradient id="linearGradient4521"><stop id="stop4293" offset="0" style="stop-color:#fff;stop-opacity:1"/><stop id="stop4295" offset="1" style="stop-color:#fff;stop-opacity:0"/></linearGradient><linearGradient id="linearGradient7488" x1="-1070.362" x2="-1055.362" y1="9.5" y2="9.5" gradientTransform="matrix(0,1,1,0,0,2125.7244)" gradientUnits="userSpaceOnUse" xlink:href="#linearGradient4521"/><linearGradient id="linearGradient7494" x1="-1070.362" x2="-1055.362" y1="9.5" y2="9.5" gradientTransform="matrix(0,1.0357118,1.0357118,0,-0.33926172,2163.6811)" gradientUnits="userSpaceOnUse" xlink:href="#linearGradient4521"/></defs><metadata id="metadata4775"/><g id="layer1" transform="translate(287.35714,-522.86219)"><g style="display:inline" id="use4207" transform="translate(-287.35713,-530.49999)"><circle style="color:#000;fill:#383734;fill-opacity:1;fill-rule:nonzero;stroke:none;stroke-width:8;marker:none;visibility:visible;display:inline;overflow:visible;enable-background:accumulate" id="circle4211" cx="9.5" cy="1062.862" r="8.5" d="m 17.999992,1062.8622 a 8.5,8.5 0 0 1 -8.4999996,8.5 8.5,8.5 0 0 1 -8.50000003,-8.5 8.5,8.5 0 0 1 8.50000003,-8.5 8.5,8.5 0 0 1 8.4999996,8.5 z"/><circle id="circle4213" cx="-1062.862" cy="9.5" r="7.5" d="m -1055.3622,9.4999952 a 7.49998,7.49998 0 0 1 -7.5,7.4999798 7.49998,7.49998 0 0 1 -7.5,-7.4999798 7.49998,7.49998 0 0 1 7.5,-7.4999799 7.49998,7.49998 0 0 1 7.5,7.4999799 z" transform="matrix(0,-1,1,0,0,0)" style="color:#000;fill:url(#linearGradient4644);fill-opacity:1;fill-rule:nonzero;stroke:none;stroke-width:8;marker:none;visibility:visible;display:inline;overflow:visible;enable-background:accumulate"/><path style="font-style:normal;font-variant:normal;font-weight:400;font-stretch:normal;text-indent:0;text-align:start;text-decoration:none;line-height:normal;letter-spacing:normal;word-spacing:normal;text-transform:none;direction:ltr;block-progression:tb;writing-mode:lr-tb;text-anchor:start;baseline-shift:baseline;opacity:.07000002;color:#000;color-interpolation:sRGB;color-interpolation-filters:linearRGB;fill:url(#linearGradient7488);fill-opacity:1;stroke:none;stroke-width:1;marker:none;visibility:visible;display:inline;overflow:visible;isolation:auto;mix-blend-mode:normal;enable-background:accumulate;clip-rule:nonzero;color-rendering:auto;image-rendering:auto;shape-rendering:auto;text-rendering:auto;font-family:sans-serif;-inkscape-font-specification:sans-serif" id="circle4215" d="m 2,1062.8613 c 0,-4.1362 3.363788,-7.5 7.5,-7.5 4.136212,0 7.5,3.3638 7.5,7.5 0,4.1362 -3.363788,7.5 -7.5,7.5 -4.136212,0 -7.5,-3.3638 -7.5,-7.5 z m 1,0 c 0,3.5958 2.9042281,6.5 6.5,6.5 3.595772,0 6.5,-2.9042 6.5,-6.5 0,-3.5957 -2.904228,-6.5 -6.5,-6.5 -3.5957719,0 -6.5,2.9043 -6.5,6.5 z"/><path style="font-style:normal;font-variant:normal;font-weight:400;font-stretch:normal;text-indent:0;text-align:start;text-decoration:none;line-height:normal;letter-spacing:normal;word-spacing:normal;text-transform:none;direction:ltr;block-progression:tb;writing-mode:lr-tb;text-anchor:start;baseline-shift:baseline;opacity:.07000002;color:#000;color-interpolation:sRGB;color-interpolation-filters:linearRGB;fill:url(#linearGradient7494);fill-opacity:1;stroke:none;stroke-width:.5;marker:none;visibility:visible;display:inline;overflow:visible;isolation:auto;mix-blend-mode:normal;enable-background:accumulate;clip-rule:nonzero;color-rendering:auto;image-rendering:auto;shape-rendering:auto;text-rendering:auto;font-family:sans-serif;-inkscape-font-specification:sans-serif" id="circle4217" d="m 2,1062.8613 c 0,-4.1391 3.3608366,-7.5 7.5,-7.5 4.139163,0 7.5,3.3609 7.5,7.5 0,4.1392 -3.360837,7.5 -7.5,7.5 -4.1391634,0 -7.5,-3.3608 -7.5,-7.5 z m 0.5,0 c 0,3.869 3.1310567,7 7,7 3.868943,0 7,-3.131 7,-7 0,-3.8689 -3.131057,-7 -7,-7 -3.8689433,0 -7,3.1311 -7,7 z"/><rect style="color:#000;fill:none;stroke:none;stroke-width:1;marker:none;visibility:visible;display:inline;overflow:visible;enable-background:accumulate" id="rect4219" width="19" height="19" x="0" y="1053.362"/></g><path style="font-style:normal;font-variant:normal;font-weight:400;font-stretch:normal;text-indent:0;text-align:start;text-decoration:none;line-height:normal;letter-spacing:normal;word-spacing:normal;text-transform:none;direction:ltr;block-progression:tb;writing-mode:lr-tb;text-anchor:start;baseline-shift:baseline;opacity:.15;color:#000;color-interpolation:sRGB;color-interpolation-filters:linearRGB;fill:#fff;fill-opacity:1;stroke:none;stroke-width:1;marker:none;visibility:visible;display:inline;overflow:visible;isolation:auto;mix-blend-mode:normal;enable-background:accumulate;clip-rule:nonzero;color-rendering:auto;image-rendering:auto;shape-rendering:auto;text-rendering:auto;font-family:sans-serif;-inkscape-font-specification:sans-serif" id="path4257" d="m -280.15792,530.35553 -0.70703,0.707 0.35352,0.3535 1.94726,1.9473 -1.94726,1.9453 -0.35352,0.3535 0.70703,0.707 0.35352,-0.3535 1.94726,-1.9472 1.94727,1.9472 0.35351,0.3535 0.70704,-0.707 -0.35352,-0.3535 -1.94727,-1.9453 1.94727,-1.9473 0.35352,-0.3535 -0.70704,-0.707 -0.35351,0.3535 -1.94727,1.9472 -1.94726,-1.9472 -0.35352,-0.3535 z"/><path style="font-style:normal;font-variant:normal;font-weight:400;font-stretch:normal;text-indent:0;text-align:start;text-decoration:none;line-height:normal;letter-spacing:normal;word-spacing:normal;text-transform:none;direction:ltr;block-progression:tb;writing-mode:lr-tb;text-anchor:start;baseline-shift:baseline;color:#000;color-interpolation:sRGB;color-interpolation-filters:linearRGB;fill:#51504b;fill-opacity:1;stroke:none;stroke-width:1;marker:none;visibility:visible;display:inline;overflow:visible;isolation:auto;mix-blend-mode:normal;enable-background:accumulate;clip-rule:nonzero;color-rendering:auto;image-rendering:auto;shape-rendering:auto;text-rendering:auto;font-family:sans-serif;-inkscape-font-specification:sans-serif" id="path4259" d="m -275.55664,529.35547 -0.35352,0.35351 -4.59961,4.59961 -0.35351,0.35352 0.70703,0.70703 0.35352,-0.35352 4.59961,-4.5996 0.35351,-0.35352 -0.70703,-0.70703 z"/><path style="font-style:normal;font-variant:normal;font-weight:400;font-stretch:normal;text-indent:0;text-align:start;text-decoration:none;line-height:normal;letter-spacing:normal;word-spacing:normal;text-transform:none;direction:ltr;block-progression:tb;writing-mode:lr-tb;text-anchor:start;baseline-shift:baseline;color:#000;color-interpolation:sRGB;color-interpolation-filters:linearRGB;fill:#51504b;fill-opacity:1;stroke:none;stroke-width:1;marker:none;visibility:visible;display:inline;overflow:visible;isolation:auto;mix-blend-mode:normal;enable-background:accumulate;clip-rule:nonzero;color-rendering:auto;image-rendering:auto;shape-rendering:auto;text-rendering:auto;font-family:sans-serif;-inkscape-font-specification:sans-serif" id="path4261" d="m -280.15625,529.35547 -0.70703,0.70703 0.35351,0.35352 4.59961,4.5996 0.35352,0.35352 0.70703,-0.70703 -0.35351,-0.35352 -4.59961,-4.59961 -0.35352,-0.35351 z"/></g></svg>