<svg xmlns="http://www.w3.org/2000/svg" id="svg4486" width="19" height="19" version="1.1" viewBox="0 0 19 19"><defs id="defs4488"><filter id="filter4411" width="1.24" height="1.24" x="-.12" y="-.12" style="color-interpolation-filters:sRGB"><feGaussianBlur id="feGaussianBlur4413" stdDeviation=".75"/></filter></defs><metadata id="metadata4491"/><g id="layer1" transform="translate(290.21 -522.86)"><g id="g4265" transform="translate(-289.71 -473)"><path id="path4267" d="m85.5 59.5a7.5 7.5 0 0 0 -7.5 7.5 7.5 7.5 0 0 0 7.5 7.5 7.5 7.5 0 0 0 7.5 -7.5 7.5 7.5 0 0 0 -7.5 -7.5zm-3.5 7h7v1h-7v-1z" transform="translate(-76.5 938.36)" style="color:#000;fill:#fff"/><rect id="rect4269" width="19" height="19" x="-.5" y="995.86" style="color:#000;fill:none"/><path id="path4409" d="m85.5 59.5a7.5 7.5 0 0 0 -7.5 7.5 7.5 7.5 0 0 0 7.5 7.5 7.5 7.5 0 0 0 7.5 -7.5 7.5 7.5 0 0 0 -7.5 -7.5zm-3.5 7h7v1h-7v-1z" transform="translate(-76.5 938.36)" style="color:#000;filter:url(#filter4411);fill:#fff"/></g></g></svg>