<svg xmlns="http://www.w3.org/2000/svg" xmlns:svg="http://www.w3.org/2000/svg" xmlns:xlink="http://www.w3.org/1999/xlink" id="svg4875" width="19" height="19" version="1.1" viewBox="0 0 19 19"><defs id="defs4877"><linearGradient id="linearGradient4795" x1="2" x2="17" y1="1062.862" y2="1062.862" gradientTransform="translate(-1072.3622,-1053.3622)" gradientUnits="userSpaceOnUse" xlink:href="#linearGradient4809"/><linearGradient id="linearGradient4809"><stop style="stop-color:#5a5955;stop-opacity:1" id="stop4511" offset="0"/><stop id="stop4517" offset=".5" style="stop-color:#75746d;stop-opacity:1"/><stop style="stop-color:#8e8d88;stop-opacity:1" id="stop4513" offset="1"/></linearGradient><linearGradient id="linearGradient4797" x1="-1070.362" x2="-1055.362" y1="9.5" y2="9.5" gradientTransform="translate(2125.7244,0)" gradientUnits="userSpaceOnUse" xlink:href="#linearGradient4521"/><linearGradient id="linearGradient4521"><stop style="stop-color:#fff;stop-opacity:1" id="stop4523" offset="0"/><stop style="stop-color:#fff;stop-opacity:0" id="stop4525" offset="1"/></linearGradient><linearGradient id="linearGradient4799" x1="-1070.362" x2="-1055.362" y1="9.5" y2="9.5" gradientTransform="matrix(1.0357118,0,0,1.0357118,2163.6811,-0.33926172)" gradientUnits="userSpaceOnUse" xlink:href="#linearGradient4521"/><linearGradient id="linearGradient4809-2"><stop style="stop-color:#5a5955;stop-opacity:1" id="stop4511-6" offset="0"/><stop id="stop4517-5" offset=".5" style="stop-color:#75746d;stop-opacity:1"/><stop style="stop-color:#8e8d88;stop-opacity:1" id="stop4513-6" offset="1"/></linearGradient><linearGradient id="linearGradient4521-2"><stop style="stop-color:#fff;stop-opacity:1" id="stop4523-9" offset="0"/><stop style="stop-color:#fff;stop-opacity:0" id="stop4525-9" offset="1"/></linearGradient><linearGradient id="linearGradient5782" x1="2" x2="17" y1="1062.862" y2="1062.862" gradientTransform="translate(-1072.3622,-1053.3622)" gradientUnits="userSpaceOnUse" xlink:href="#linearGradient4809-2"/><linearGradient id="linearGradient7573" x1="-1070.362" x2="-1055.362" y1="9.5" y2="9.5" gradientTransform="matrix(0,1,1,0,0,2125.7244)" gradientUnits="userSpaceOnUse" xlink:href="#linearGradient4521-2"/><linearGradient id="linearGradient7581" x1="-1070.362" x2="-1055.362" y1="9.5" y2="9.5" gradientTransform="matrix(0,1.0357118,1.0357118,0,-0.33926172,2163.6811)" gradientUnits="userSpaceOnUse" xlink:href="#linearGradient4521-2"/></defs><metadata id="metadata4880"/><g id="layer1" transform="translate(287.35715,-522.86219)"><use id="use4830" width="100%" height="100%" x="0" y="0" transform="translate(-71.163447,-1065.6156)" xlink:href="#g4783"/><g id="g4783" transform="translate(-287.35714,-530.49999)"><circle style="color:#000;fill:#383734;fill-opacity:1;fill-rule:nonzero;stroke:none;stroke-width:8;marker:none;visibility:visible;display:inline;overflow:visible;enable-background:accumulate" id="circle4785" cx="9.5" cy="1062.862" r="8.5" d="m 17.999992,1062.8622 a 8.5,8.5 0 0 1 -8.4999996,8.5 8.5,8.5 0 0 1 -8.50000003,-8.5 8.5,8.5 0 0 1 8.50000003,-8.5 8.5,8.5 0 0 1 8.4999996,8.5 z"/><circle id="circle4787" cx="-1062.862" cy="9.5" r="7.5" d="m -1055.3622,9.4999952 a 7.49998,7.49998 0 0 1 -7.5,7.4999798 7.49998,7.49998 0 0 1 -7.5,-7.4999798 7.49998,7.49998 0 0 1 7.5,-7.4999799 7.49998,7.49998 0 0 1 7.5,7.4999799 z" transform="matrix(0,-1,1,0,0,0)" style="color:#000;fill:url(#linearGradient5782);fill-opacity:1;fill-rule:nonzero;stroke:none;stroke-width:8;marker:none;visibility:visible;display:inline;overflow:visible;enable-background:accumulate"/><path style="font-style:normal;font-variant:normal;font-weight:400;font-stretch:normal;text-indent:0;text-align:start;text-decoration:none;line-height:normal;letter-spacing:normal;word-spacing:normal;text-transform:none;direction:ltr;block-progression:tb;writing-mode:lr-tb;text-anchor:start;baseline-shift:baseline;opacity:.07000002;color:#000;color-interpolation:sRGB;color-interpolation-filters:linearRGB;fill:url(#linearGradient7573);fill-opacity:1;stroke:none;stroke-width:1;marker:none;visibility:visible;display:inline;overflow:visible;isolation:auto;mix-blend-mode:normal;enable-background:accumulate;clip-rule:nonzero;color-rendering:auto;image-rendering:auto;shape-rendering:auto;text-rendering:auto;font-family:sans-serif;-inkscape-font-specification:sans-serif" id="circle4789" d="m 2,1062.8613 c 0,-4.1362 3.363788,-7.5 7.5,-7.5 4.136212,0 7.5,3.3638 7.5,7.5 0,4.1362 -3.363788,7.5 -7.5,7.5 -4.136212,0 -7.5,-3.3638 -7.5,-7.5 z m 1,0 c 0,3.5958 2.9042281,6.5 6.5,6.5 3.595772,0 6.5,-2.9042 6.5,-6.5 0,-3.5957 -2.904228,-6.5 -6.5,-6.5 -3.5957719,0 -6.5,2.9043 -6.5,6.5 z"/><path style="font-style:normal;font-variant:normal;font-weight:400;font-stretch:normal;text-indent:0;text-align:start;text-decoration:none;line-height:normal;letter-spacing:normal;word-spacing:normal;text-transform:none;direction:ltr;block-progression:tb;writing-mode:lr-tb;text-anchor:start;baseline-shift:baseline;opacity:.07000002;color:#000;color-interpolation:sRGB;color-interpolation-filters:linearRGB;fill:url(#linearGradient7581);fill-opacity:1;stroke:none;stroke-width:.5;marker:none;visibility:visible;display:inline;overflow:visible;isolation:auto;mix-blend-mode:normal;enable-background:accumulate;clip-rule:nonzero;color-rendering:auto;image-rendering:auto;shape-rendering:auto;text-rendering:auto;font-family:sans-serif;-inkscape-font-specification:sans-serif" id="circle4791" d="m 2,1062.8613 c 0,-4.1391 3.3608366,-7.5 7.5,-7.5 4.139163,0 7.5,3.3609 7.5,7.5 0,4.1392 -3.360837,7.5 -7.5,7.5 -4.1391634,0 -7.5,-3.3608 -7.5,-7.5 z m 0.5,0 c 0,3.869 3.1310567,7 7,7 3.868943,0 7,-3.131 7,-7 0,-3.8689 -3.131057,-7 -7,-7 -3.8689433,0 -7,3.1311 -7,7 z"/><rect style="color:#000;fill:none;stroke:none;stroke-width:1;marker:none;visibility:visible;display:inline;overflow:visible;enable-background:accumulate" id="rect4793" width="19" height="19" x="0" y="1053.362"/></g><path style="font-style:normal;font-variant:normal;font-weight:400;font-stretch:normal;text-indent:0;text-align:start;text-decoration:none;line-height:normal;letter-spacing:normal;word-spacing:normal;text-transform:none;direction:ltr;block-progression:tb;writing-mode:lr-tb;text-anchor:start;baseline-shift:baseline;opacity:.1;color:#000;color-interpolation:sRGB;color-interpolation-filters:linearRGB;fill:#fff;fill-opacity:1;stroke:none;stroke-width:1;marker:none;visibility:visible;display:inline;overflow:visible;isolation:auto;mix-blend-mode:normal;enable-background:accumulate;clip-rule:nonzero;color-rendering:auto;image-rendering:auto;shape-rendering:auto;text-rendering:auto;font-family:sans-serif;-inkscape-font-specification:sans-serif" id="rect4840" d="m -281.35742,530.86133 0,0.5 0,4.5 7,0 0,-5 -7,0 z m 1,1 5,0 0,3 -5,0 0,-3 z"/><path style="font-style:normal;font-variant:normal;font-weight:400;font-stretch:normal;text-indent:0;text-align:start;text-decoration:none;line-height:normal;letter-spacing:normal;word-spacing:normal;text-transform:none;direction:ltr;block-progression:tb;writing-mode:lr-tb;text-anchor:start;baseline-shift:baseline;color:#000;color-interpolation:sRGB;color-interpolation-filters:linearRGB;fill:#3d3c37;fill-opacity:1;stroke:none;stroke-width:1;marker:none;visibility:visible;display:inline;overflow:visible;isolation:auto;mix-blend-mode:normal;enable-background:accumulate;clip-rule:nonzero;color-rendering:auto;image-rendering:auto;shape-rendering:auto;text-rendering:auto;font-family:sans-serif;-inkscape-font-specification:sans-serif" id="rect4838" d="m -281.35742,529.86133 0,0.5 0,4.5 7,0 0,-5 -7,0 z m 1,1 5,0 0,3 -5,0 0,-3 z"/></g></svg>