<svg xmlns="http://www.w3.org/2000/svg" id="svg4486" width="19" height="19" version="1.1" viewBox="0 0 19 19"><metadata id="metadata4491"/><g id="layer1" transform="translate(290.21 -522.86)"><g id="g4117" transform="translate(-289.71 -511)"><path id="path4119" d="m85.5 97.5a7.5 7.5 0 0 0 -7.5 7.5 7.5 7.5 0 0 0 7.5 7.5 7.5 7.5 0 0 0 7.5 -7.5 7.5 7.5 0 0 0 -7.5 -7.5zm-2.5 4.2227 0.38867 0.38867l2.111 2.11 2.111-2.11 0.389-0.39 0.777 0.78-0.388 0.39-2.112 2.11 2.112 2.11 0.388 0.39-0.777 0.78-0.389-0.39-2.111-2.11-2.111 2.11-0.389 0.39-0.777-0.78 0.388-0.39 2.112-2.11-2.112-2.11-0.388-0.39 0.777-0.78z" transform="translate(-76.5 938.36)" style="color:#000;fill:#dd4814"/><rect id="rect4121" width="19" height="19" x="-.5" y="1033.9" style="color:#000;fill:none"/></g></g></svg>