<svg xmlns="http://www.w3.org/2000/svg" xmlns:svg="http://www.w3.org/2000/svg" id="svg4486" width="19" height="19" version="1.1" viewBox="0 0 19 19"><defs id="defs4488"><filter style="color-interpolation-filters:sRGB" id="filter4230" width="1.24" height="1.24" x="-.12" y="-.12"><feGaussianBlur id="feGaussianBlur4232" stdDeviation=".75"/></filter></defs><metadata id="metadata4491"/><g id="layer1" transform="translate(290.21429,-522.86219)"><g style="display:inline" id="g4222" transform="translate(-289.71429,-492.00011)"><path style="color:#000;fill:#fff;fill-opacity:1;fill-rule:nonzero;stroke:none;stroke-width:8;marker:none;visibility:visible;display:inline;overflow:visible;enable-background:accumulate" id="path4224" d="m 8.999998,1016.8622 a 7.4999796,7.4999796 0 0 0 -7.5,7.5 7.4999796,7.4999796 0 0 0 7.5,7.5 7.4999796,7.4999796 0 0 0 7.5,-7.5 7.4999796,7.4999796 0 0 0 -7.5,-7.5 z m -3.5,4 7,0 0,7 -7,0 0,-6.5 0,-0.5 z m 1,1 0,5 5,0 0,-5 -5,0 z"/><rect id="rect4226" width="19" height="19" x="-.5" y="1014.862" style="color:#000;fill:none;stroke:none;stroke-width:1;marker:none;visibility:visible;display:inline;overflow:visible;enable-background:accumulate"/><path id="path4228" d="m 8.999998,1016.8622 a 7.4999796,7.4999796 0 0 0 -7.5,7.5 7.4999796,7.4999796 0 0 0 7.5,7.5 7.4999796,7.4999796 0 0 0 7.5,-7.5 7.4999796,7.4999796 0 0 0 -7.5,-7.5 z m -3.5,4 7,0 0,7 -7,0 0,-6.5 0,-0.5 z m 1,1 0,5 5,0 0,-5 -5,0 z" style="color:#000;fill:#fff;fill-opacity:1;fill-rule:nonzero;stroke:none;stroke-width:8;marker:none;visibility:visible;display:inline;overflow:visible;filter:url(#filter4230);enable-background:accumulate"/></g></g></svg>