<svg xmlns="http://www.w3.org/2000/svg" xmlns:svg="http://www.w3.org/2000/svg" id="svg4486" width="19" height="19" version="1.1" viewBox="0 0 19 19"><metadata id="metadata4491"/><g id="layer1" transform="translate(290.21429,-522.86219)"><g id="g4234" transform="translate(-289.71429,-492.00011)" style="opacity:.5;display:inline"><path style="color:#000;fill:#fff;fill-opacity:1;fill-rule:nonzero;stroke:none;stroke-width:8;marker:none;visibility:visible;display:inline;overflow:visible;enable-background:accumulate" id="path4236" d="m 8.999998,1016.8622 a 7.4999796,7.4999796 0 0 0 -7.5,7.5 7.4999796,7.4999796 0 0 0 7.5,7.5 7.4999796,7.4999796 0 0 0 7.5,-7.5 7.4999796,7.4999796 0 0 0 -7.5,-7.5 z m -3.5,4 7,0 0,7 -7,0 0,-6.5 0,-0.5 z m 1,1 0,5 5,0 0,-5 -5,0 z"/><rect id="rect4238" width="19" height="19" x="-.5" y="1014.862" style="color:#000;fill:none;stroke:none;stroke-width:1;marker:none;visibility:visible;display:inline;overflow:visible;enable-background:accumulate"/></g></g></svg>