<svg xmlns="http://www.w3.org/2000/svg" xmlns:xlink="http://www.w3.org/1999/xlink" id="svg4770" width="19" height="19" version="1.1" viewBox="0 0 19 19"><defs id="defs4772"><linearGradient id="linearGradient4747" x1="-6" x2="6" y1="967.36" y2="967.36" gradientTransform="matrix(1.0833 0 0 1.0833 966.86 -1057.5)" gradientUnits="userSpaceOnUse"><stop id="stop4668" offset="0" style="stop-color:#191919;stop-opacity:.6"/><stop id="stop4700" offset=".5" style="stop-color:#181818;stop-opacity:0"/><stop id="stop4670" offset="1" style="stop-color:#fff;stop-opacity:.24314"/></linearGradient></defs><metadata id="metadata4775"/><g id="layer1" transform="translate(287.36 -522.86)"><g id="g4731" transform="translate(-287.36 -434.5)"><circle id="circle4733" cx="966.86" cy="-9.5" r="6.5" d="m 973.36224,-9.5000038 a 6.5,6.5 0 0 1 -6.5,6.5 6.5,6.5 0 0 1 -6.5,-6.5 6.5,6.5 0 0 1 6.5,-6.5000002 6.5,6.5 0 0 1 6.5,6.5000002 z" transform="rotate(90)" style="color:#000;fill:url(#linearGradient4747)"/><circle id="circle5388-4" cx="9.5" cy="967.86" r="3.5" d="m 12.999998,967.86218 a 3.4999948,3.4999948 0 0 1 -3.4999951,3.5 3.4999948,3.4999948 0 0 1 -3.4999948,-3.5 3.4999948,3.4999948 0 0 1 3.4999948,-3.49999 3.4999948,3.4999948 0 0 1 3.4999951,3.49999 z" style="opacity:.2;color:#000"/><circle id="circle4735" cx="9.5" cy="966.86" r="3" d="m 12.500003,966.86218 a 3,3 0 0 1 -3.0000001,3 3,3 0 0 1 -3,-3 3,3 0 0 1 3,-3 3,3 0 0 1 3.0000001,3 z" style="color:#000;fill:#555351"/><path id="path4737" d="m9.5 960.36a6.5 6.5 0 0 0 -6.5 6.5 6.5 6.5 0 0 0 0.023438 0.5293 6.5 6.5 0 0 1 6.4766 -6.0293 6.5 6.5 0 0 1 6.4766 5.9707 6.5 6.5 0 0 0 0.02344 -0.4707 6.5 6.5 0 0 0 -6.5 -6.5z" style="opacity:.1;color:#000"/><path id="path4739" d="m15.977 966.33a6.5 6.5 0 0 1 -6.4766 6.0293 6.5 6.5 0 0 1 -6.4766 -5.9707 6.5 6.5 0 0 0 -0.023438 0.4707 6.5 6.5 0 0 0 6.5 6.5 6.5 6.5 0 0 0 6.5 -6.5 6.5 6.5 0 0 0 -0.02344 -0.5293z" style="opacity:.07;color:#000;fill:#fff"/><path id="path4741" d="m15.99 966.56a6.5 6.5 0 0 1 -6.4902 6.3008 6.5 6.5 0 0 1 -6.4902 -6.1992 6.5 6.5 0 0 0 -0.00977 0.19922 6.5 6.5 0 0 0 6.5 6.5 6.5 6.5 0 0 0 6.5 -6.5 6.5 6.5 0 0 0 -0.0098 -0.30078z" style="opacity:.07;color:#000;fill:#fff"/><path id="path4743" d="m9.5 960.36a6.5 6.5 0 0 0 -6.5 6.5 6.5 6.5 0 0 0 0.00977 0.30078 6.5 6.5 0 0 1 6.4902 -6.3008 6.5 6.5 0 0 1 6.4902 6.1992 6.5 6.5 0 0 0 0.0098 -0.19922 6.5 6.5 0 0 0 -6.5 -6.5z" style="opacity:.1;color:#000"/><rect id="rect4745" width="19" height="19" x="0" y="957.36" style="opacity:.1;color:#000;fill:none"/><path id="circle4632" d="m9.5 963.36c-1.9271 0-3.5 1.5729-3.5 3.5s1.5729 3.5 3.5 3.5 3.5-1.5729 3.5-3.5-1.5729-3.5-3.5-3.5zm0 1c1.3866 0 2.5 1.1134 2.5 2.5s-1.1134 2.5-2.5 2.5-2.5-1.1134-2.5-2.5 1.1134-2.5 2.5-2.5z" style="color-rendering:auto;block-progression:tb;isolation:auto;mix-blend-mode:normal;shape-rendering:auto;color:#000;image-rendering:auto;text-indent:0;text-transform:none;fill:#6c6967"/></g></g></svg>